






<svg width="700"
     height="450"
     xmlns="http://www.w3.org/2000/svg">
<style>
  .tick-label { font-family: sans-serif; font-size: 12px; fill: #444; }
  .axis-line, .tick-line { stroke: #888; }
  .bar { opacity: 0.85; }
</style>
<g transform="translate(70,55)">
  <text font-family="sans-serif" font-size="15" font-weight="bold" fill="#1a1a2e"
        text-anchor="middle" x="300.0" y="-28">
    Distribución de Edad — Pasajeros del Titanic
  </text>
  <text font-family="sans-serif" font-size="11" fill="#777"
        text-anchor="middle" x="300.0" y="-12">
    Variable: Age (valores nulos excluidos)
  </text>
  <g transform="translate(0,320)">
    <!-- axis orientation=bottom range=[0,600] ticks=8 -->
  <g class="axis axis-bottom" transform="translate(0, 0)">
    <line class="axis-line" x1="0" y1="0" x2="600" y2="0" stroke="currentColor" stroke-width="1"/>
    <g class="tick" transform="translate(3, 0)">
      <line class="tick-line" x1="0" y1="0" x2="0" y2="6" stroke="currentColor" stroke-width="1"/>
      <text class="tick-label" x="0" y="9" text-anchor="middle" dominant-baseline="hanging" dy="0.15em" >0-9</text>
    </g>
    <g class="tick" transform="translate(78, 0)">
      <line class="tick-line" x1="0" y1="0" x2="0" y2="6" stroke="currentColor" stroke-width="1"/>
      <text class="tick-label" x="0" y="9" text-anchor="middle" dominant-baseline="hanging" dy="0.15em" >10-19</text>
    </g>
    <g class="tick" transform="translate(153, 0)">
      <line class="tick-line" x1="0" y1="0" x2="0" y2="6" stroke="currentColor" stroke-width="1"/>
      <text class="tick-label" x="0" y="9" text-anchor="middle" dominant-baseline="hanging" dy="0.15em" >20-29</text>
    </g>
    <g class="tick" transform="translate(228, 0)">
      <line class="tick-line" x1="0" y1="0" x2="0" y2="6" stroke="currentColor" stroke-width="1"/>
      <text class="tick-label" x="0" y="9" text-anchor="middle" dominant-baseline="hanging" dy="0.15em" >30-39</text>
    </g>
    <g class="tick" transform="translate(303, 0)">
      <line class="tick-line" x1="0" y1="0" x2="0" y2="6" stroke="currentColor" stroke-width="1"/>
      <text class="tick-label" x="0" y="9" text-anchor="middle" dominant-baseline="hanging" dy="0.15em" >40-49</text>
    </g>
    <g class="tick" transform="translate(378, 0)">
      <line class="tick-line" x1="0" y1="0" x2="0" y2="6" stroke="currentColor" stroke-width="1"/>
      <text class="tick-label" x="0" y="9" text-anchor="middle" dominant-baseline="hanging" dy="0.15em" >50-59</text>
    </g>
    <g class="tick" transform="translate(453, 0)">
      <line class="tick-line" x1="0" y1="0" x2="0" y2="6" stroke="currentColor" stroke-width="1"/>
      <text class="tick-label" x="0" y="9" text-anchor="middle" dominant-baseline="hanging" dy="0.15em" >60-69</text>
    </g>
    <g class="tick" transform="translate(528, 0)">
      <line class="tick-line" x1="0" y1="0" x2="0" y2="6" stroke="currentColor" stroke-width="1"/>
      <text class="tick-label" x="0" y="9" text-anchor="middle" dominant-baseline="hanging" dy="0.15em" >70+</text>
    </g>
  </g>

  </g>
  <g><!-- axis orientation=left range=[320,0] ticks=8 -->
  <g class="axis axis-left" transform="translate(0, 0)">
    <line class="axis-line" x1="0" y1="320" x2="0" y2="0" stroke="currentColor" stroke-width="1"/>
    <g class="tick" transform="translate(0, 320)">
      <line class="tick-line" x1="-6" y1="0" x2="0" y2="0" stroke="currentColor" stroke-width="1"/>
      <text class="tick-label" x="-9" y="0" text-anchor="end" dominant-baseline="central" >0</text>
    </g>
    <g class="tick" transform="translate(0, 274.29)">
      <line class="tick-line" x1="-6" y1="0" x2="0" y2="0" stroke="currentColor" stroke-width="1"/>
      <text class="tick-label" x="-9" y="0" text-anchor="end" dominant-baseline="central" >20</text>
    </g>
    <g class="tick" transform="translate(0, 228.57)">
      <line class="tick-line" x1="-6" y1="0" x2="0" y2="0" stroke="currentColor" stroke-width="1"/>
      <text class="tick-label" x="-9" y="0" text-anchor="end" dominant-baseline="central" >40</text>
    </g>
    <g class="tick" transform="translate(0, 182.86)">
      <line class="tick-line" x1="-6" y1="0" x2="0" y2="0" stroke="currentColor" stroke-width="1"/>
      <text class="tick-label" x="-9" y="0" text-anchor="end" dominant-baseline="central" >60</text>
    </g>
    <g class="tick" transform="translate(0, 137.14)">
      <line class="tick-line" x1="-6" y1="0" x2="0" y2="0" stroke="currentColor" stroke-width="1"/>
      <text class="tick-label" x="-9" y="0" text-anchor="end" dominant-baseline="central" >80</text>
    </g>
    <g class="tick" transform="translate(0, 91.43)">
      <line class="tick-line" x1="-6" y1="0" x2="0" y2="0" stroke="currentColor" stroke-width="1"/>
      <text class="tick-label" x="-9" y="0" text-anchor="end" dominant-baseline="central" >100</text>
    </g>
    <g class="tick" transform="translate(0, 45.71)">
      <line class="tick-line" x1="-6" y1="0" x2="0" y2="0" stroke="currentColor" stroke-width="1"/>
      <text class="tick-label" x="-9" y="0" text-anchor="end" dominant-baseline="central" >120</text>
    </g>
    <g class="tick" transform="translate(0, 0)">
      <line class="tick-line" x1="-6" y1="0" x2="0" y2="0" stroke="currentColor" stroke-width="1"/>
      <text class="tick-label" x="-9" y="0" text-anchor="end" dominant-baseline="central" >140</text>
    </g>
  </g>
</g>
  <rect class="bar"
        x="3.0"
        y="77.71428571428572"
        width="69.0"
        height="242.28571428571428"
        fill="#4e79a7"/>
  <rect class="bar"
        x="78.0"
        y="226.28571428571428"
        width="69.0"
        height="93.71428571428572"
        fill="#4e79a7"/>
  <rect class="bar"
        x="153.0"
        y="36.571428571428555"
        width="69.0"
        height="283.42857142857144"
        fill="#4e79a7"/>
  <rect class="bar"
        x="228.0"
        y="171.42857142857142"
        width="69.0"
        height="148.57142857142858"
        fill="#4e79a7"/>
  <rect class="bar"
        x="303.0"
        y="214.85714285714286"
        width="69.0"
        height="105.14285714285714"
        fill="#4e79a7"/>
  <rect class="bar"
        x="378.0"
        y="269.7142857142857"
        width="69.0"
        height="50.28571428571428"
        fill="#4e79a7"/>
  <rect class="bar"
        x="453.0"
        y="290.2857142857143"
        width="69.0"
        height="29.714285714285722"
        fill="#4e79a7"/>
  <rect class="bar"
        x="528.0"
        y="317.7142857142857"
        width="69.0"
        height="2.2857142857142776"
        fill="#4e79a7"/>
  <text font-family="sans-serif" font-size="12" fill="#555"
        text-anchor="middle" x="300.0" y="380">
    Rango de Edad (años)
  </text>
  <text font-family="sans-serif" font-size="12" fill="#555"
        text-anchor="middle" transform="rotate(-90)"
        x="160.0" y="-52">
    Número de Pasajeros
  </text>
</g>
</svg>
