






<svg width="560"
     height="420"
     xmlns="http://www.w3.org/2000/svg">
<style>
  .tick-label { font-family: sans-serif; font-size: 12px; fill: #444; }
  .axis-line, .tick-line { stroke: #888; }
</style>
<g transform="translate(70,65)">
  <text font-family="sans-serif" font-size="15" font-weight="bold" fill="#1a1a2e"
        text-anchor="middle" x="185.0" y="-38">
    Sexo vs Supervivencia
  </text>
  <text font-family="sans-serif" font-size="11" fill="#777"
        text-anchor="middle" x="185.0" y="-20">
    Variables: Sex y Survived — Pasajeros del Titanic
  </text>
  <g transform="translate(0,295)">
    <!-- axis orientation=bottom range=[0,370] ticks=2 -->
  <g class="axis axis-bottom" transform="translate(0, 0)">
    <line class="axis-line" x1="0" y1="0" x2="370" y2="0" stroke="currentColor" stroke-width="1"/>
    <g class="tick" transform="translate(27.75, 0)">
      <line class="tick-line" x1="0" y1="0" x2="0" y2="6" stroke="currentColor" stroke-width="1"/>
      <text class="tick-label" x="0" y="9" text-anchor="middle" dominant-baseline="hanging" dy="0.15em" >Female</text>
    </g>
    <g class="tick" transform="translate(212.75, 0)">
      <line class="tick-line" x1="0" y1="0" x2="0" y2="6" stroke="currentColor" stroke-width="1"/>
      <text class="tick-label" x="0" y="9" text-anchor="middle" dominant-baseline="hanging" dy="0.15em" >Male</text>
    </g>
  </g>

  </g>
  <g><!-- axis orientation=left range=[295,0] ticks=7 -->
  <g class="axis axis-left" transform="translate(0, 0)">
    <line class="axis-line" x1="0" y1="295" x2="0" y2="0" stroke="currentColor" stroke-width="1"/>
    <g class="tick" transform="translate(0, 295)">
      <line class="tick-line" x1="-6" y1="0" x2="0" y2="0" stroke="currentColor" stroke-width="1"/>
      <text class="tick-label" x="-9" y="0" text-anchor="end" dominant-baseline="central" >0</text>
    </g>
    <g class="tick" transform="translate(0, 245.83)">
      <line class="tick-line" x1="-6" y1="0" x2="0" y2="0" stroke="currentColor" stroke-width="1"/>
      <text class="tick-label" x="-9" y="0" text-anchor="end" dominant-baseline="central" >50</text>
    </g>
    <g class="tick" transform="translate(0, 196.67)">
      <line class="tick-line" x1="-6" y1="0" x2="0" y2="0" stroke="currentColor" stroke-width="1"/>
      <text class="tick-label" x="-9" y="0" text-anchor="end" dominant-baseline="central" >100</text>
    </g>
    <g class="tick" transform="translate(0, 147.50)">
      <line class="tick-line" x1="-6" y1="0" x2="0" y2="0" stroke="currentColor" stroke-width="1"/>
      <text class="tick-label" x="-9" y="0" text-anchor="end" dominant-baseline="central" >150</text>
    </g>
    <g class="tick" transform="translate(0, 98.33)">
      <line class="tick-line" x1="-6" y1="0" x2="0" y2="0" stroke="currentColor" stroke-width="1"/>
      <text class="tick-label" x="-9" y="0" text-anchor="end" dominant-baseline="central" >200</text>
    </g>
    <g class="tick" transform="translate(0, 49.17)">
      <line class="tick-line" x1="-6" y1="0" x2="0" y2="0" stroke="currentColor" stroke-width="1"/>
      <text class="tick-label" x="-9" y="0" text-anchor="end" dominant-baseline="central" >250</text>
    </g>
    <g class="tick" transform="translate(0, 0)">
      <line class="tick-line" x1="-6" y1="0" x2="0" y2="0" stroke="currentColor" stroke-width="1"/>
      <text class="tick-label" x="-9" y="0" text-anchor="end" dominant-baseline="central" >300</text>
    </g>
  </g>
</g>
  <rect x="27.75"
        y="295.0"
        width="62.75"
        height="0.0"
        fill="#e63946" opacity="0.87"/>
  <text font-family="sans-serif" font-size="12" font-weight="bold" fill="#c1121f"
        text-anchor="middle"
        x="59.125"
        y="290.0">
    0
  </text>
  <rect x="94.5"
        y="145.53333333333333"
        width="62.75"
        height="149.46666666666667"
        fill="#2a9d8f" opacity="0.87"/>
  <text font-family="sans-serif" font-size="12" font-weight="bold" fill="#1b7a70"
        text-anchor="middle"
        x="125.875"
        y="140.53333333333333">
    152
  </text>
  <rect x="212.75"
        y="33.43333333333334"
        width="62.75"
        height="261.56666666666666"
        fill="#e63946" opacity="0.87"/>
  <text font-family="sans-serif" font-size="12" font-weight="bold" fill="#c1121f"
        text-anchor="middle"
        x="244.125"
        y="28.433333333333337">
    266
  </text>
  <rect x="279.5"
        y="295.0"
        width="62.75"
        height="0.0"
        fill="#2a9d8f" opacity="0.87"/>
  <text font-family="sans-serif" font-size="12" font-weight="bold" fill="#1b7a70"
        text-anchor="middle"
        x="310.875"
        y="290.0">
    0
  </text>
  <rect x="385" y="20" width="14" height="14" fill="#e63946" opacity="0.87"/>
  <text font-family="sans-serif" font-size="12" fill="#333"
        x="404" y="32">No Sobrevivió</text>
  <rect x="385" y="42" width="14" height="14" fill="#2a9d8f" opacity="0.87"/>
  <text font-family="sans-serif" font-size="12" fill="#333"
        x="404" y="54">Sobrevivió</text>
  <text font-family="sans-serif" font-size="12" fill="#555"
        text-anchor="middle" transform="rotate(-90)"
        x="147.5" y="-52">
    Número de Pasajeros
  </text>
</g>
</svg>
